<svg width="32" height="32" viewBox="0 0 32 32" fill="none" xmlns="http://www.w3.org/2000/svg">
<rect width="32" height="32" rx="5" fill="#AFBCF6"/>
<path d="M9.34724 12.7951L12.0519 13.5264V16.6811C12.0532 17.4975 12.378 18.2801 12.9553 18.8574C13.5326 19.4347 14.3152 19.7595 15.1316 19.7608H16.0035C16.8199 19.7595 17.6025 19.4347 18.1798 18.8574C18.7571 18.2801 19.0819 17.4975 19.0832 16.6811V13.5264L21.7879 12.7951C21.8852 12.7667 21.9708 12.7075 22.0316 12.6264C22.0925 12.5453 22.1254 12.4466 22.1254 12.3451C22.1254 12.2437 22.0925 12.145 22.0316 12.0639C21.9708 11.9828 21.8852 11.9235 21.7879 11.8951L15.6941 10.0201C15.6055 9.99329 15.5109 9.99329 15.4222 10.0201L9.32849 11.8951C9.23166 11.9255 9.14729 11.9865 9.08808 12.0689C9.02886 12.1513 8.99799 12.2507 9.0001 12.3522C9.00222 12.4536 9.0372 12.5517 9.0998 12.6316C9.16239 12.7114 9.24922 12.7688 9.34724 12.7951ZM18.1457 16.6811C18.1444 17.2488 17.9183 17.793 17.5169 18.1945C17.1154 18.5959 16.5713 18.822 16.0035 18.8233H15.1316C14.5639 18.822 14.0197 18.5959 13.6182 18.1945C13.2168 17.793 12.9907 17.2488 12.9894 16.6811V13.7842L15.441 14.4639C15.5235 14.4889 15.6116 14.4889 15.6941 14.4639L18.1457 13.7842V16.6811ZM15.5676 10.9436L19.9926 12.3264L15.5676 13.5264L11.1426 12.3264L15.5676 10.9436Z" fill="#30364F"/>
<path d="M20.1521 20.0043C20.0977 19.935 20.0249 19.8824 19.942 19.8525C19.8591 19.8227 19.7694 19.8168 19.6833 19.8356L15.5677 20.7637L11.4521 19.8262C11.366 19.8074 11.2763 19.8133 11.1934 19.8431C11.1105 19.873 11.0377 19.9256 10.9833 19.9949L9.10832 22.3387C9.05392 22.4073 9.01981 22.4898 9.00987 22.5767C8.99993 22.6637 9.01455 22.7518 9.05207 22.8309C9.08871 22.9124 9.14789 22.9817 9.22264 23.0308C9.29738 23.0798 9.38458 23.1064 9.47395 23.1074H21.6614C21.7498 23.1072 21.8363 23.082 21.9109 23.0347C21.9856 22.9874 22.0453 22.92 22.0833 22.8403C22.1208 22.7611 22.1355 22.6731 22.1255 22.5861C22.1156 22.4991 22.0815 22.4167 22.0271 22.3481L20.1521 20.0043ZM10.4489 22.1699L11.5318 20.8153L15.4646 21.7012C15.5326 21.7152 15.6028 21.7152 15.6708 21.7012L19.6036 20.8246L20.6864 22.1699H10.4489Z" fill="#30364F"/>
</svg>
